<svg height="200px" width="200px" version="1.1" id="Layer_1" xmlns="http://www.w3.org/2000/svg" xmlns:xlink="http://www.w3.org/1999/xlink" viewBox="0 0 512 512" xml:space="preserve" fill="#000000"><g id="SVGRepo_bgCarrier" stroke-width="0"></g><g id="SVGRepo_tracerCarrier" stroke-linecap="round" stroke-linejoin="round"></g><g id="SVGRepo_iconCarrier"> <path style="fill:#5B5D6E;" d="M45.244,210.183v27.49C45.244,354.07,139.602,448.43,256,448.43s210.756-94.359,210.756-210.756 v-27.49H45.244z"></path> <circle style="fill:#464655;" cx="256" cy="338.47" r="64.143"></circle> <circle style="fill:#5B5D6E;" cx="256" cy="338.47" r="27.49"></circle> <g> <circle style="fill:#FFFFFF;" cx="276.617" cy="317.852" r="16.036"></circle> <circle style="fill:#FFFFFF;" cx="231.019" cy="363.451" r="13.745"></circle> </g> <path style="fill:#464655;" d="M45.244,210.183v27.49c0,117.399,95.991,212.38,213.769,210.736c0.219-1.999-0.119,1.084,0.101-0.916 c-53.207-9.017-95.828-84.994-102.836-181.722c-0.383-5.277,3.894-9.77,9.185-9.77h300.451c0.521-6.044,0.843-12.146,0.843-18.327 v-27.49L45.244,210.183L45.244,210.183z"></path> <path style="fill:#D5DCED;" d="M485.083,63.57H26.917c-10.121,0-18.327,8.205-18.327,18.327v102.369 c0,4.86,1.931,9.522,5.369,12.958l31.285,31.286h421.512l31.285-31.286c3.437-3.436,5.369-8.098,5.369-12.958V81.897 C503.409,71.775,495.204,63.57,485.083,63.57z"></path> <g> <path style="fill:#C7CFE2;" d="M8.591,182.694v1.573c0,4.86,1.931,9.522,5.369,12.958l31.285,31.286h421.512l31.285-31.286 c3.437-3.436,5.369-8.098,5.369-12.958v-1.573H8.591z"></path> <path style="fill:#C7CFE2;" d="M136.877,184.265V81.897c0-10.122,3.951-18.327,8.824-18.327H26.917 c-10.121,0-18.327,8.205-18.327,18.327v102.369c0,4.86,1.931,9.522,5.369,12.958l31.285,31.286h109.281l-15.063-31.286 C137.807,193.787,136.877,189.126,136.877,184.265z"></path> </g> <path style="fill:#AFB9D2;" d="M8.591,182.694v1.573c0,4.86,1.931,9.522,5.369,12.958l31.285,31.286h109.281l-15.063-31.286 c-1.655-3.436-2.584-8.098-2.584-12.958v-1.573H8.591z"></path> <path d="M485.083,54.98H26.917C12.075,54.98,0,67.055,0,81.897v102.369c0,7.19,2.801,13.95,7.884,19.033l28.769,28.768v5.606 c0,120.948,98.399,219.347,219.347,219.347s219.347-98.399,219.347-219.347v-5.606l28.768-28.769 c5.085-5.083,7.885-11.844,7.885-19.033V81.897C512,67.055,499.925,54.98,485.083,54.98z M256,439.839 c-111.474,0-202.166-90.692-202.166-202.166v-0.573h28.067c4.744,0,8.591-3.846,8.591-8.591c0-4.744-3.846-8.591-8.591-8.591h-33.1 l-28.635-28.635h336.631c4.744,0,8.591-3.846,8.591-8.591s-3.846-8.591-8.591-8.591H17.181V81.897c0-5.369,4.367-9.736,9.736-9.736 h458.166c5.369,0,9.736,4.367,9.736,9.736v92.206h-46.388c-4.744,0-8.591,3.846-8.591,8.591s3.846,8.591,8.591,8.591h43.402 l-28.635,28.635H118.55c-4.744,0-8.591,3.846-8.591,8.591c0,4.744,3.846,8.591,8.591,8.591h339.615v0.573 C458.166,349.147,367.474,439.839,256,439.839z"></path> <path d="M393.45,191.284h18.33c4.744,0,8.591-3.846,8.591-8.591s-3.846-8.591-8.591-8.591h-18.33c-4.744,0-8.591,3.846-8.591,8.591 S388.705,191.284,393.45,191.284z"></path> <path d="M256,265.736c-40.106,0-72.734,32.628-72.734,72.734s32.628,72.734,72.734,72.734s72.734-32.628,72.734-72.734 S296.106,265.736,256,265.736z M256,394.022c-30.632,0-55.553-24.921-55.553-55.553s24.921-55.553,55.553-55.553 s55.553,24.921,55.553,55.553S286.632,394.022,256,394.022z"></path> <path d="M283.49,329.879c-4.744,0-8.591,3.846-8.591,8.591c0,10.421-8.478,18.899-18.899,18.899s-18.899-8.478-18.899-18.899 c0-10.421,8.478-18.899,18.899-18.899c4.744,0,8.591-3.846,8.591-8.591c0-4.744-3.846-8.591-8.591-8.591 c-19.895,0-36.081,16.186-36.081,36.081c0,19.895,16.186,36.081,36.081,36.081s36.081-16.186,36.081-36.081 C292.081,333.725,288.234,329.879,283.49,329.879z"></path> </g></svg>